<svg width="0" height="0" class="hidden">
  <symbol xmlns="http://www.w3.org/2000/svg" viewBox="0 0 40 27" id="hamburger">
    <path d="M3.16113 16.1572C4.35793 16.1572 5.32812 15.187 5.32812 13.9902C5.32812 12.7934 4.35793 11.8232 3.16113 11.8232C1.96434 11.8232 0.994141 12.7934 0.994141 13.9902C0.994141 15.187 1.96434 16.1572 3.16113 16.1572Z" ></path>
    <path d="M37.963 11.8232H11.6991C10.5741 11.8232 9.66211 12.7352 9.66211 13.8602V14.1202C9.66211 15.2452 10.5741 16.1572 11.6991 16.1572H37.963C39.088 16.1572 40 15.2452 40 14.1202V13.8602C40 12.7352 39.088 11.8232 37.963 11.8232Z" ></path>
    <path d="M37.963 22.6581H3.03111C1.90612 22.6581 0.994141 23.5701 0.994141 24.6951V24.9552C0.994141 26.0801 1.90612 26.9921 3.03111 26.9921H37.963C39.088 26.9921 40 26.0801 40 24.9552V24.6951C40 23.5701 39.088 22.6581 37.963 22.6581Z" ></path>
    <path d="M37.963 0.98822H3.03111C1.90612 0.98822 0.994141 1.9002 0.994141 3.02519V3.28523C0.994141 4.41022 1.90612 5.3222 3.03111 5.3222H37.963C39.088 5.3222 40 4.41022 40 3.28523V3.02519C40 1.9002 39.088 0.98822 37.963 0.98822Z" ></path>
  </symbol>
</svg>